<?xml version="1.0" encoding="UTF-8" standalone="no"?>
<svg
   xmlns:dc="http://purl.org/dc/elements/1.1/"
   xmlns:cc="http://creativecommons.org/ns#"
   xmlns:rdf="http://www.w3.org/1999/02/22-rdf-syntax-ns#"
   xmlns:svg="http://www.w3.org/2000/svg"
   xmlns="http://www.w3.org/2000/svg"
   id="svg8"
   version="1.1"
   viewBox="0 0 153.74504 153.74504"
   height="153.74504mm"
   width="153.74504mm">
  <defs
     id="defs2" />
  <metadata
     id="metadata5">
    <rdf:RDF>
      <cc:Work
         rdf:about="">
        <dc:format>image/svg+xml</dc:format>
        <dc:type
           rdf:resource="http://purl.org/dc/dcmitype/StillImage" />
        <dc:title></dc:title>
      </cc:Work>
    </rdf:RDF>
  </metadata>
  <g
     transform="translate(-28.094668,-63.528429)"
     id="layer1">
    <g
       transform="matrix(0.26458333,0,0,0.26458333,47.927382,73.629758)"
       id="g1074">
      <g
         id="g961">
	
	
	
	
	
	
	
	
	
	
	
	
	
	
	
	
	
	
	
	
	
	
	
	
	
	
	
	
	
	
	
	
	
	
	
	
	
	
	
	
	
	
	
	
	
	
	
	
	
	
	
	
	
	
	
</g>
      <g
         transform="rotate(18.113066,187.29325,55.579028)"
         id="g1187">
        <rect
           transform="translate(-1.1023623e-6)"
           id="rect851"
           height="32"
           width="40"
           style="fill:#5c546a"
           y="448"
           x="368" />
        <path
           transform="translate(-1.1023623e-6)"
           id="path853"
           d="m 464,432 v -24 c 0,-4.418 -3.582,-8 -8,-8 h -32 v 32 z"
           style="fill:#5c546a" />
        <rect
           transform="translate(-1.1023623e-6)"
           id="rect855"
           height="32"
           width="40"
           style="fill:#5c546a"
           y="400"
           x="368" />
        <path
           transform="translate(-1.1023623e-6)"
           id="path857"
           d="m 312,448 v 24 c 0,4.418 3.582,8 8,8 h 32 v -32 z"
           style="fill:#5c546a" />
        <path
           transform="translate(-1.1023623e-6)"
           id="path859"
           d="m 424,480 h 32 c 4.418,0 8,-3.582 8,-8 v -24 h -40 z"
           style="fill:#5c546a" />
        <path
           transform="translate(-1.1023623e-6)"
           id="path861"
           d="m 352,400 h -32 c -4.418,0 -8,3.582 -8,8 v 24 h 40 z"
           style="fill:#5c546a" />
        <polygon
           transform="translate(-1.1023623e-6)"
           id="polygon863"
           points="424,480 424,448 464,448 464,432 424,432 424,400 408,400 408,432 368,432 368,400 352,400 352,432 312,432 296,432 296,448 312,448 352,448 352,480 368,480 368,448 408,448 408,480 "
           style="fill:#888693" />
        <path
           transform="translate(-1.1023623e-6)"
           id="path865"
           d="m 200,432 v -24 c 0,-4.418 -3.582,-8 -8,-8 h -32 v 32 z"
           style="fill:#5c546a" />
        <path
           transform="translate(-1.1023623e-6)"
           id="path867"
           d="m 160,480 h 32 c 4.418,0 8,-3.582 8,-8 v -24 h -40 z"
           style="fill:#5c546a" />
        <path
           transform="translate(-1.1023623e-6)"
           id="path869"
           d="m 48,448 v 24 c 0,4.418 3.582,8 8,8 h 32 v -32 z"
           style="fill:#5c546a" />
        <rect
           transform="translate(-1.1023623e-6)"
           id="rect871"
           height="32"
           width="40"
           style="fill:#5c546a"
           y="400"
           x="104" />
        <rect
           transform="translate(-1.1023623e-6)"
           id="rect873"
           height="32"
           width="40"
           style="fill:#5c546a"
           y="448"
           x="104" />
        <path
           transform="translate(-1.1023623e-6)"
           id="path875"
           d="M 88,400 H 56 c -4.418,0 -8,3.582 -8,8 v 24 h 40 z"
           style="fill:#5c546a" />
        <polygon
           transform="translate(-1.1023623e-6)"
           id="polygon877"
           points="240,136 256,136 272,136 272,112 256,112 240,112 "
           style="fill:#5c546a" />
        <polygon
           transform="translate(-1.1023623e-6)"
           id="polygon879"
           points="240,312 240,328 256,328 272,328 272,312 256,312 "
           style="fill:#5c546a" />
        <path
           transform="translate(-1.1023623e-6)"
           id="path881"
           d="m 256,248 c -19.352,0 -35.492,-13.742 -39.198,-32 H 192 v 55.996 c 0,0.652 0.078,1.305 0.242,1.941 C 192.078,273.302 192,272.65 192,271.999 h 64 v 40 0 h 16 32 v 0 c 3.672,0 6.867,-2.5 7.758,-6.059 l 8,-32.004 c 0.164,-0.635 0.242,-1.287 0.242,-1.938 v 0 h -64 z"
           style="fill:#b6b8be" />
        <path
           transform="translate(-1.1023623e-6)"
           id="path883"
           d="m 256,168 v -32 h -16 -12.688 c -4.211,0 -8.336,1.707 -11.313,4.688 L 196.688,160 C 193.665,163.023 192,167.039 192,171.313 V 200 h 24.802 c 3.706,-18.258 19.847,-32 39.198,-32 z"
           style="fill:#b6b8be" />
        <path
           transform="translate(-1.1023623e-6)"
           id="path885"
           d="m 293.573,221.753 c -2.692,7.352 -7.48,13.693 -13.64,18.3 -3.594,2.687 -7.654,4.785 -12.038,6.148 -1.252,0.39 -2.531,0.719 -3.833,0.986 -2.604,0.533 -5.3,0.813 -8.061,0.813 v 24 h 64 c 0,-10e-4 0,-0.003 0,-0.004 V 216 h -24.802 c -0.402,1.974 -0.946,3.896 -1.626,5.753 z"
           style="fill:#d5d9de" />
        <path
           transform="translate(-1.1023623e-6)"
           id="path887"
           d="m 256,168 c 2.761,0 5.458,0.28 8.061,0.813 1.302,0.266 2.581,0.596 3.833,0.986 4.384,1.364 8.444,3.461 12.038,6.148 6.674,4.991 11.737,12.017 14.269,20.158 0.389,1.253 0.719,2.531 0.986,3.833 0.004,0.02 0.007,0.041 0.011,0.061 H 320 v -28.688 c 0,-4.273 -1.664,-8.289 -4.688,-11.313 L 296,140.688 C 293.023,137.708 288.898,136 284.687,136 H 272 256 Z"
           style="fill:#d5d9de" />
        <path
           transform="translate(-1.1023623e-6)"
           id="path889"
           d="M 40,16 H 8 c -4.418,0 -8,3.582 -8,8 v 24 h 40 z"
           style="fill:#5c546a" />
        <rect
           transform="translate(-1.1023623e-6)"
           id="rect891"
           height="32"
           width="40"
           style="fill:#5c546a"
           y="16"
           x="112" />
        <rect
           transform="translate(-1.1023623e-6)"
           id="rect893"
           height="32"
           width="40"
           style="fill:#5c546a"
           y="16"
           x="56" />
        <path
           transform="translate(-1.1023623e-6)"
           id="path895"
           d="M 208,48 V 24 c 0,-4.418 -3.582,-8 -8,-8 h -32 v 32 z"
           style="fill:#5c546a" />
        <path
           transform="translate(-1.1023623e-6)"
           id="path897"
           d="m 168,96 h 32 c 4.418,0 8,-3.582 8,-8 V 64 h -40 z"
           style="fill:#5c546a" />
        <rect
           transform="translate(-1.1023623e-6)"
           id="rect899"
           height="32"
           width="40"
           style="fill:#5c546a"
           y="64"
           x="112" />
        <path
           transform="translate(-1.1023623e-6)"
           id="path901"
           d="m 0,64 v 24 c 0,4.418 3.582,8 8,8 H 40 V 64 Z"
           style="fill:#5c546a" />
        <rect
           transform="translate(-1.1023623e-6)"
           id="rect903"
           height="32"
           width="40"
           style="fill:#5c546a"
           y="64"
           x="56" />
        <polygon
           transform="translate(-1.1023623e-6)"
           id="polygon905"
           points="96,16 96,48 56,48 56,16 40,16 40,48 0,48 0,64 40,64 40,96 56,96 56,64 96,64 96,96 112,96 112,64 152,64 152,96 168,96 168,64 208,64 224,64 224,48 208,48 168,48 168,16 152,16 152,48 112,48 112,16 "
           style="fill:#888693" />
        <path
           transform="translate(-1.1023623e-6)"
           id="path907"
           d="m 344,16 h -32 c -4.418,0 -8,3.582 -8,8 v 24 h 40 z"
           style="fill:#5c546a" />
        <rect
           transform="translate(-1.1023623e-6)"
           id="rect909"
           height="32"
           width="40"
           style="fill:#5c546a"
           y="64"
           x="360" />
        <rect
           transform="translate(-1.1023623e-6)"
           id="rect911"
           height="32"
           width="40"
           style="fill:#5c546a"
           y="16"
           x="416" />
        <rect
           transform="translate(-1.1023623e-6)"
           id="rect913"
           height="32"
           width="40"
           style="fill:#5c546a"
           y="16"
           x="360" />
        <rect
           transform="translate(-1.1023623e-6)"
           id="rect915"
           height="32"
           width="40"
           style="fill:#5c546a"
           y="64"
           x="416" />
        <path
           transform="translate(-1.1023623e-6)"
           id="path917"
           d="m 504,16 h -32 v 32 h 40 V 24 c 0,-4.418 -3.582,-8 -8,-8 z"
           style="fill:#5c546a" />
        <path
           transform="translate(-1.1023623e-6)"
           id="path919"
           d="m 472,96 h 32 c 4.418,0 8,-3.582 8,-8 V 64 h -40 z"
           style="fill:#5c546a" />
        <path
           transform="translate(-1.1023623e-6)"
           id="path921"
           d="m 304,64 v 24 c 0,4.418 3.582,8 8,8 h 32 V 64 Z"
           style="fill:#5c546a" />
        <polygon
           transform="translate(-1.1023623e-6)"
           id="polygon923"
           points="360,48 360,16 344,16 344,48 304,48 288,48 288,64 304,64 344,64 344,96 360,96 360,64 400,64 400,96 416,96 416,64 456,64 456,96 472,96 472,64 512,64 512,48 472,48 472,16 456,16 456,48 416,48 416,16 400,16 400,48 "
           style="fill:#888693" />
        <path
           transform="translate(-1.1023623e-6)"
           id="path925"
           d="m 256,32 v 80 h 24 c 4.418,0 8,-3.582 8,-8 V 64 48 32 Z"
           style="fill:#d5d9de" />
        <path
           transform="translate(-1.1023623e-6)"
           id="path927"
           d="m 272,0 h -16 v 16 h 32 C 288,7.164 280.837,0 272,0 Z"
           style="fill:#d5d9de" />
        <path
           transform="translate(-1.1023623e-6)"
           id="path929"
           d="m 256,328 h -16 c -3.258,0 -6.195,1.977 -7.414,5 l -14.141,35 H 256 Z"
           style="fill:#888693" />
        <path
           transform="translate(-1.1023623e-6)"
           id="path931"
           d="m 256,400 v -16 h -40 v 48 h -16 -40 v -32 h -16 v 32 H 104 V 400 H 88 v 32 H 48 v 16 h 40 v 32 h 16 v -32 h 40 v 32 h 16 v -32 h 40 16 v 48 c 0,8.824 7.18,16 16,16 h 16 V 408 c 0,-4.418 3.582,-8 8,-8 z"
           style="fill:#888693" />
        <path
           transform="translate(-1.1023623e-6)"
           id="path933"
           d="m 256,0 h -16 c -8.836,0 -16,7.163 -16,16 h 32 z"
           style="fill:#b6b8be" />
        <path
           transform="translate(-1.1023623e-6)"
           id="path935"
           d="m 256,32 h -32 v 16 16 40 c 0,4.418 3.582,8 8,8 h 8 16 z"
           style="fill:#b6b8be" />
        <rect
           transform="translate(-1.1023623e-6)"
           id="rect937"
           height="16"
           width="32"
           style="fill:#888693"
           y="16"
           x="224" />
        <rect
           transform="translate(-1.1023623e-6)"
           id="rect939"
           height="16"
           width="32"
           style="fill:#b6b8be"
           y="16"
           x="256" />
        <path
           transform="translate(-1.1023623e-6)"
           id="path941"
           d="m 264.061,247.187 c 1.302,-0.266 2.581,-0.596 3.833,-0.986 -1.252,0.39 -2.531,0.72 -3.833,0.986 z"
           style="fill:#888693" />
        <path
           transform="translate(-1.1023623e-6)"
           id="path943"
           d="M 239.029,191.03 C 234.686,195.373 232,201.373 232,208 c 0,13.255 10.745,24 24,24 6.627,0 12.627,-2.686 16.97,-7.029 z"
           style="fill:#ffcf00" />
        <path
           transform="translate(-1.1023623e-6)"
           id="path945"
           d="m 256,272 h -63.999 c 0,0.651 0.078,1.302 0.242,1.938 l 8,32.004 C 201.133,309.5 204.328,312 208,312 h 32 16 z"
           style="fill:#888693" />
        <path
           transform="translate(-1.1023623e-6)"
           id="path947"
           d="m 256,400 c 4.418,0 8,3.582 8,8 v 104 h 16 c 8.82,0 16,-7.176 16,-16 v -48 -16 -48 h -40 z"
           style="fill:#b6b8be" />
        <path
           transform="translate(-1.1023623e-6)"
           id="path949"
           d="m 256,368 h 37.555 l 1.21,2.996 c -0.055,-0.156 -0.109,-0.309 -0.172,-0.461 L 279.414,333 c -1.219,-3.023 -4.156,-5 -7.414,-5 h -16 z"
           style="fill:#b6b8be" />
        <path
           transform="translate(-1.1023623e-6)"
           id="path951"
           d="m 256,368 h -37.555 v 0 l -1.21,2.996 c -0.82,2.445 -1.234,5.004 -1.234,7.602 V 384 h 40 v -16 z"
           style="fill:#5c546a" />
        <path
           transform="translate(-1.1023623e-6)"
           id="path953"
           d="m 256,368 v 16 h 40 v -5.402 c 0,-2.598 -0.414,-5.156 -1.234,-7.602 L 293.556,368 Z"
           style="fill:#888693" />
        <path
           transform="translate(-1.1023623e-6)"
           id="path955"
           d="m 256,400 c -4.418,0 -8,3.582 -8,8 v 104 h 8 8 V 408 c 0,-4.418 -3.582,-8 -8,-8 z"
           style="fill:#d5d9de" />
        <path
           transform="translate(-1.1023623e-6)"
           id="path957"
           d="m 242.038,188.486 c -0.36,0.258 -0.712,0.524 -1.057,0.801 -0.128,0.103 -0.256,0.205 -0.382,0.311 -0.543,0.455 -1.069,0.932 -1.57,1.433 l 33.941,33.941 c 4.343,-4.343 7.03,-10.343 7.03,-16.971 0,-0.414 -0.011,-0.826 -0.031,-1.235 -0.622,-12.272 -10.462,-22.112 -22.734,-22.734 C 256.826,184.01 256.414,184 256,184 c -1.657,0 -3.275,0.168 -4.837,0.488 -3.35,0.685 -6.442,2.075 -9.125,3.998 z"
           style="fill:#ffedb9" />
        <path
           transform="translate(-1.1023623e-6)"
           id="path959"
           d="m 295.187,199.939 c -0.266,-1.302 -0.596,-2.581 -0.986,-3.833 -2.532,-8.141 -7.595,-15.168 -14.269,-20.158 -3.594,-2.688 -7.654,-4.785 -12.038,-6.148 -1.252,-0.389 -2.531,-0.719 -3.833,-0.986 -2.604,-0.533 -5.3,-0.813 -8.061,-0.813 v 16 c 0.414,0 0.826,0.01 1.235,0.031 12.272,0.622 22.112,10.462 22.734,22.734 0.021,0.409 0.031,0.821 0.031,1.235 0,6.627 -2.687,12.627 -7.03,16.971 C 268.628,229.314 262.628,232 256,232 v 16 c 2.761,0 5.458,-0.28 8.061,-0.813 1.302,-0.266 2.581,-0.596 3.833,-0.986 4.384,-1.364 8.444,-3.461 12.038,-6.148 6.16,-4.607 10.948,-10.948 13.64,-18.3 0.68,-1.857 1.225,-3.779 1.625,-5.753 v 0 H 320 v -16 h -24.802 c -0.004,-0.02 -0.006,-0.041 -0.011,-0.061 z"
           style="fill:#b6b8be" />
        <path
           id="path963"
           d="m 240.599,189.597 c 0.126,-0.105 0.254,-0.208 0.382,-0.311 0.344,-0.277 0.697,-0.543 1.057,-0.801 2.683,-1.923 5.775,-3.312 9.125,-3.998 1.562,-0.32 3.18,-0.488 4.837,-0.488 v -16 c -19.352,0 -35.492,13.742 -39.198,32 H 192 v 16 h 24.802 c 3.706,18.258 19.847,32 39.198,32 v -16 c -13.255,0 -24,-10.745 -24,-24 0,-6.627 2.686,-12.627 7.029,-16.97 0.501,-0.5 1.027,-0.977 1.57,-1.432 z"
           style="fill:#888693" />
      </g>
      <g
         id="g965">
</g>
      <g
         id="g967">
</g>
      <g
         id="g969">
</g>
      <g
         id="g971">
</g>
      <g
         id="g973">
</g>
      <g
         id="g975">
</g>
      <g
         id="g977">
</g>
      <g
         id="g979">
</g>
      <g
         id="g981">
</g>
      <g
         id="g983">
</g>
      <g
         id="g985">
</g>
      <g
         id="g987">
</g>
      <g
         id="g989">
</g>
      <g
         id="g991">
</g>
      <g
         id="g993">
</g>
    </g>
  </g>
</svg>
